<?xml version="1.0" encoding="utf-8"?>
<!-- Generator: Adobe Illustrator 23.0.2, SVG Export Plug-In . SVG Version: 6.00 Build 0)  -->
<svg version="1.1" id="레이어_1" xmlns="http://www.w3.org/2000/svg" xmlns:xlink="http://www.w3.org/1999/xlink" x="0px"
	 y="0px" viewBox="0 0 384 512" style="enable-background:new 0 0 384 512;" xml:space="preserve">
<style type="text/css">
	.st0{fill:#18587C;}
	.st1{fill:#FFFFFF;}
</style>
<path class="st0" d="M384,192c0,87.4-117,243-168.3,307.2c-12.3,15.3-35.1,15.3-47.4,0C116.1,435,0,279.4,0,192C0,86,86,0,192,0
	S384,86,384,192L384,192z"/>
<path class="st1" d="M276.7,169.1c-1.6,0.2-3.2,0.3-4.9,0.3c-10.6,0-20.1-4.7-26.6-11.8c-6.5,7.2-16,11.8-26.6,11.8
	c-10.7,0-20.1-4.7-26.6-11.8c-6.5,7.2-15.9,11.8-26.6,11.8c-10.6,0-20.1-4.7-26.6-11.8c-6.5,7.2-16,11.8-26.6,11.8
	c-1.7,0-3.3-0.1-4.9-0.3c-22.6-3-33.3-29.6-21.2-48.7l23.4-37c2.1-3.3,5.8-5.4,9.8-5.4h145.6c4,0,7.7,2,9.8,5.4l23.4,37
	C310.1,139.6,299.3,166.1,276.7,169.1L276.7,169.1z M278.4,182.1c1.4-0.2,3.4-0.5,5-0.9v79.7c0,14.4-11.7,26.1-26.1,26.1H126.7
	c-14.4,0-26.1-11.7-26.1-26.1v-79.7c1.6,0.4,3.2,0.7,4.9,0.9l0,0c2.1,0.3,4.4,0.4,6.6,0.4c5.1,0,10-0.8,14.5-2.2v54.4h130.6v-54.4
	c4.6,1.4,9.4,2.2,14.4,2.2C274,182.5,276.2,182.4,278.4,182.1L278.4,182.1z"/>
</svg>
