<?xml version="1.0" encoding="utf-8"?>
<!-- Generator: Adobe Illustrator 23.0.2, SVG Export Plug-In . SVG Version: 6.00 Build 0)  -->
<svg version="1.1" id="레이어_1" xmlns="http://www.w3.org/2000/svg" xmlns:xlink="http://www.w3.org/1999/xlink" x="0px"
	 y="0px" viewBox="0 0 384 512" style="enable-background:new 0 0 384 512;" xml:space="preserve">
<style type="text/css">
	.st0{fill:#5F5FFF;}
	.st1{fill:#FFFFFF;}
</style>
<path class="st0" d="M384,192c0,87.4-117,243-168.3,307.2c-12.3,15.3-35.1,15.3-47.4,0C116.1,435,0,279.4,0,192C0,86,86,0,192,0
	C298,0,384,86,384,192L384,192z"/>
<path class="st1" d="M267.3,86.5H113.6c-5.2,0-9.4,4.2-9.4,9.4l0,90.9c0,20.8,16.9,37.6,37.6,37.6h75.3c20.8,0,37.6-16.9,37.6-37.6
	h12.5c27.7,0,50.2-22.5,50.2-50.2S294.9,86.5,267.3,86.5z M267.3,161.8h-12.5v-50.2h12.5c13.8,0,25.1,11.3,25.1,25.1
	S281.1,161.8,267.3,161.8z M286.1,237H72.8c-3.5,0-6.3,2.8-6.3,6.3c0,10.4,8.4,18.8,18.8,18.8h188.1c10.4,0,18.8-8.4,18.8-18.8
	C292.3,239.9,289.5,237,286.1,237z"/>
</svg>
